<?xml version="1.0" encoding="UTF-8"?>
<svg xmlns="http://www.w3.org/2000/svg" viewBox="0 0 500 500">
    <!-- 
        FINAL PRODUCTION MASTER (SENTRY UPGRADE)
        - Characteristics:
            1. Optimized Geometric Gap (14px Mask Cut).
            2. Traced "Rounded" Loop (Option 1).
            3. Robust Transparency (Non-zero Winding).
            4. Color: Electric Cyan (#00D2FF) - Institutional Authority.
    -->
    <defs>
        <style>
             /* Explicit Styling to prevent rendering glitches */
             .st0 { fill: #002147; stroke: none; }
             .st1 { fill: #00D2FF; stroke: none; }
             .st2 { fill: #FFD700; stroke: none; }
        </style>
        
        <!-- The Perfect Gap Mask -->
        <mask id="PerfectGapMask">
            <!-- Reveal All -->
            <rect x="-1000" y="-1000" width="3000" height="3000" fill="white"/>
            <!-- Cut the Leg + Gap Padding (Stroke 24 = 12px gap) -->
            <path d="M396.5,425h-1.3c-10.6-1-19.3-6.1-26-15.3-.3-.6-4.3-7.3-10-16.5-49.2-81.1-52.8-87.8-52.6-88.4,5.5-8.8,19.4-31.2,27.4-43.8,3.3-5.4,5.7-9,5.7-9.1s0-.3.3-.3h0c0,0,.3,0,.3.3,1.6,2.7,27.4,45.3,49.4,81.8,17,28.2,31.9,52.8,32.2,53.5,4.2,7,4.2,15.2,0,22.5-5.2,9-15.4,14.9-25.6,14.9h0l.4.3h-.2,0Z"
                  fill="black" stroke="black" stroke-width="24" stroke-linecap="round" stroke-linejoin="round"/>
        </mask>
    </defs>
    
    <!-- 1. BACKGROUND -->
    <rect class="st0" width="500" height="500"/>

    <!-- 2. LEFT LOOP (Option 1 - Masked) -->
    <!-- fill-rule="nonzero" ensures self-overlapping segments merge into solid fill -->
    <path class="st1" mask="url(#PerfectGapMask)" fill-rule="nonzero"
          d="M162.2,424.3c-30.8,0-57.9-14.8-74.3-40.9-15.4-24.2-16.9-55-4.2-80.5,7.8-14.2,32.9-53.9,57.4-92.4,15.1-23.7,29.3-46.1,39.3-62.6,2.7-4.3,4.8-7.8,8.4-11.5,11.4-13.1,28.1-20.6,45.6-20.6s33.8,8.1,43.8,22.1c5.5,7.8,9.1,16.9,10.3,26.4.3,2.5-.4,4.8-2.1,7.5-1.9,3.3-21.8,34.6-21.8,34.6-.6.9-1.2,1.9-1.8,2.8-1.3,2.2-2.4,4.2-3.9,4.2s-1.2-.3-1.8-.9c-4.2-4.9-8.2-11.5-12-18-2.4-4-4.5-7.9-6.9-11.2-1.8-2.8-4.8-4.5-7.8-4.5s-4.2,1-5.8,3c-5.2,8.1-27.5,43.8-45.6,72.7-11.8,18.9-22.1,35.3-25.4,40.4-2.2,3.6-5.2,8.1-7.9,12.5-1.6,2.7-3.3,5.4-4.8,7.8-.6,1-1.3,2.1-1.9,3.1-2.5,4-4.6,7.5-6.1,11.1-5.2,12.4-.4,27.3,10.9,34.6,5.5,3.6,11.4,5.4,17.5,5.4h0c12.3,0,25-7.6,32.9-20,5.5-8.1,23.6-37,45-70.6,31.7-50.4,67.9-107.5,76.1-118.7,6.3-6.7,14.5-10.8,22.7-10.8h.9c9.3,0,18.2,5.1,23.2,13.1,4.8,7.9,5.4,16.8,1,24.7-3.6,7-6.6,11.3-10.9,18-3.1,4.9-7.3,11.2-13,20.6-14.4,22.5-31,48.7-47,74.2-24.4,38.9-47.7,75.7-55.3,86.8-17.5,24.1-45.5,38.6-75.1,38.6h0v-.6h.4,0Z"/>

    <!-- 3. RIGHT LEG (Overlay) -->
    <path class="st1" d="M396.5,425h-1.3c-10.6-1-19.3-6.1-26-15.3-.3-.6-4.3-7.3-10-16.5-49.2-81.1-52.8-87.8-52.6-88.4,5.5-8.8,19.4-31.2,27.4-43.8,3.3-5.4,5.7-9,5.7-9.1s0-.3.3-.3h0c0,0,.3,0,.3.3,1.6,2.7,27.4,45.3,49.4,81.8,17,28.2,31.9,52.8,32.2,53.5,4.2,7,4.2,15.2,0,22.5-5.2,9-15.4,14.9-25.6,14.9h0l.4.3h-.2,0Z"/>
        
    <!-- 4. DOT -->
    <circle class="st2" cx="387.5" cy="112.5" r="37.5"/>
</svg>
