<?xml version="1.0" encoding="UTF-8"?>
<svg xmlns="http://www.w3.org/2000/svg" viewBox="0 50 1400 400">
    <!-- 
        FINAL FULL LOGO LOCKUP (SENTRY UPGRADE)
        - Characteristics:
            1. Color: Electric Cyan (#00D2FF) & Precision Gold (#FFD700).
            2. ViewBox: Trimmed (0 50 1400 400).
            3. Geometry: n-Law Perfect Gap + Separated Paths.
    -->
    <defs>
        <style>
             .bg { fill: #002147; stroke: none; }
             .icon { fill: #00D2FF; stroke: none; }
             .text-primary { fill: #FFFFFF; stroke: none; } 
             .text-secondary { fill: #FFD700; stroke: none; } 
        </style>
        
        <!-- Optimized Gap Mask -->
        <mask id="PerfectGapMask">
            <rect x="-1000" y="-1000" width="3000" height="3000" fill="white"/>
            <path d="M396.5,425h-1.3c-10.6-1-19.3-6.1-26-15.3-.3-.6-4.3-7.3-10-16.5-49.2-81.1-52.8-87.8-52.6-88.4,5.5-8.8,19.4-31.2,27.4-43.8,3.3-5.4,5.7-9,5.7-9.1s0-.3.3-.3h0c0,0,.3,0,.3.3,1.6,2.7,27.4,45.3,49.4,81.8,17,28.2,31.9,52.8,32.2,53.5,4.2,7,4.2,15.2,0,22.5-5.2,9-15.4,14.9-25.6,14.9h0l.4.3h-.2,0Z"
                  fill="black" stroke="black" stroke-width="24" stroke-linecap="round" stroke-linejoin="round"/>
        </mask>
    </defs>
    
    <!-- 2. ICON COMPONENT (Left) -->
    <g id="Icon_Component">
        <!-- Left Loop -->
        <path class="icon" mask="url(#PerfectGapMask)" fill-rule="nonzero"
              d="M162.2,424.3c-30.8,0-57.9-14.8-74.3-40.9-15.4-24.2-16.9-55-4.2-80.5,7.8-14.2,32.9-53.9,57.4-92.4,15.1-23.7,29.3-46.1,39.3-62.6,2.7-4.3,4.8-7.8,8.4-11.5,11.4-13.1,28.1-20.5,45.6-20.5s33.8,8.1,43.8,22.1c5.5,7.8,9.1,16.9,10.3,26.4.3,2.5-.4,4.8-2.1,7.5-1.9,3.3-21.8,34.6-21.8,34.6-.6.9-1.2,1.9-1.8,2.8-1.3,2.2-2.4,4.2-3.9,4.2s-1.2-.3-1.8-.9c-4.2-4.9-8.2-11.5-12-18-2.4-4-4.5-7.9-6.9-11.2-1.8-2.8-4.8-4.5-7.8-4.5s-4.2,1-5.8,3c-5.2,8.1-27.5,43.8-45.6,72.7-11.8,18.9-22.1,35.3-25.4,40.4-2.2,3.6-5.2,8.1-7.9,12.5-1.6,2.7-3.3,5.4-4.8,7.8-.6,1-1.3,2.1-1.9,3.1-2.5,4-4.6,7.5-6.1,11.1-5.2,12.4-.4,27.3,10.9,34.6,5.5,3.6,11.4,5.4,17.5,5.4h0c12.3,0,25-7.6,32.9-20,5.5-8.1,23.6-37,45-70.6,31.7-50.4,67.9-107.5,76.1-118.7,6.3-6.7,14.5-10.8,22.7-10.8h.9c9.3,0,18.2,5.1,23.2,13.1,4.8,7.9,5.4,16.8,1,24.7-3.6,7-6.6,11.3-10.9,18-3.1,4.9-7.3,11.2-13,20.6-14.4,22.5-31,48.7-47,74.2-24.4,38.9-47.7,75.7-55.3,86.8-17.5,24.1-45.5,38.6-75.1,38.6h0v-.6h.4,0Z"/>
        <!-- Right Leg -->
        <path class="icon" d="M396.5,425h-1.3c-10.6-1-19.3-6.1-26-15.3-.3-.6-4.3-7.3-10-16.5-49.2-81.1-52.8-87.8-52.6-88.4,5.5-8.8,19.4-31.2,27.4-43.8,3.3-5.4,5.7-9,5.7-9.1s0-.3.3-.3h0c0,0,.3,0,.3.3,1.6,2.7,27.4,45.3,49.4,81.8,17,28.2,31.9,52.8,32.2,53.5,4.2,7,4.2,15.2,0,22.5-5.2,9-15.4,14.9-25.6,14.9h0l.4.3h-.2,0Z"/>
        <!-- Dot -->
        <circle class="text-secondary" cx="387.5" cy="112.5" r="37.5"/>
    </g>

    <!-- 3. WORDMARK COMPONENT (Right) -->
    <g id="Wordmark" transform="translate(87.4, -149)">
        <!-- "inspiron" (White) -->
        <path class="text-primary" d="M405.104,373.488c0,.682-.29,1.276-.868,1.787-.579.51-1.255.766-2.025.766h-14.034c-.773,0-1.472-.256-2.098-.766-.628-.511-.94-1.105-.94-1.787v-11.234c0-.68.312-1.277.94-1.787.626-.511,1.325-.766,2.098-.766h14.034c.771,0,1.447.255,2.025.766.579.51.868,1.107.868,1.787v11.234ZM404.67,454.936c0,.682-.29,1.298-.868,1.851-.579.555-1.255.83-2.025.83h-13.311c-.773,0-1.447-.275-2.025-.83-.579-.553-.868-1.169-.868-1.851v-66.767c0-.681.29-1.276.868-1.788.579-.51,1.252-.766,2.025-.766h13.311c.771,0,1.447.256,2.025.766.579.512.868,1.107.868,1.788v66.767Z M484.099,456.786c-.579.555-1.255.83-2.025.83h-13.311c-.773,0-1.447-.275-2.025-.83-.579-.553-.868-1.169-.868-1.851v-41.617c0-2.809-.122-5.127-.362-6.958-.242-1.829-.773-3.275-1.591-4.341-.821-1.062-2.05-1.828-3.689-2.297-1.641-.467-3.859-.703-6.655-.703-2.509,0-5.089.405-7.741,1.213-2.654.811-5.522,1.938-8.608,3.383v51.32c0,.682-.29,1.298-.868,1.851-.579.555-1.255.83-2.025.83h-13.311c-.773,0-1.447-.275-2.025-.83-.579-.553-.868-1.169-.868-1.851v-66.767c0-.681.29-1.276.868-1.788.579-.51,1.252-.766,2.025-.766h12.587c.771,0,1.447.256,2.025.766.579.512.868,1.107.868,1.788v2.681c2.121-1.191,4.074-2.17,5.86-2.936,1.784-.767,3.592-1.383,5.425-1.852,1.832-.467,3.712-.809,5.643-1.021,1.929-.211,4.099-.318,6.511-.318,5.208,0,9.452.724,12.732,2.17,3.278,1.447,5.81,3.446,7.596,6,1.784,2.553,3.013,5.574,3.689,9.063.673,3.491,1.013,7.276,1.013,11.362v41.617c0,.682-.29,1.298-.868,1.851Z M552.315,438.765c0,2.805-.579,5.415-1.736,7.835-1.157,2.422-2.918,4.521-5.281,6.305-2.365,1.784-5.331,3.186-8.898,4.205-3.569,1.018-7.718,1.528-12.442,1.528-1.447,0-3.208-.044-5.281-.128-2.075-.088-4.318-.237-6.728-.451-2.412-.217-4.824-.473-7.234-.773-2.413-.299-4.63-.708-6.656-1.225-1.833-.429-2.749-1.416-2.749-2.962v-7.731c0-.515.217-.983.651-1.411.434-.425,1.035-.638,1.809-.638h.579c1.736.172,3.784.341,6.149.511,2.362.171,4.702.319,7.017.446,2.315.128,4.485.235,6.511.319,2.025.086,3.567.128,4.63.128,2.218,0,4.001-.147,5.353-.445,1.35-.297,2.387-.722,3.111-1.274.723-.551,1.205-1.209,1.447-1.975.24-.764.362-1.57.362-2.42,0-1.188-.484-2.251-1.447-3.185-.965-.934-2.604-2.039-4.919-3.314l-19.821-10.699c-3.57-1.953-6.488-4.436-8.753-7.451-2.268-3.015-3.4-6.39-3.4-10.128,0-12.737,9.163-19.108,27.49-19.108,2.894,0,5.521.064,7.885.193,2.363.129,4.558.322,6.583.58,2.026.258,3.954.537,5.788.836,1.831.301,3.665.624,5.498.967,1.736.432,2.604,1.418,2.604,2.963v7.474c0,1.624-.773,2.434-2.315,2.434h-.579c-1.062-.084-2.509-.233-4.34-.446-1.833-.212-3.859-.383-6.077-.512-2.22-.127-4.51-.255-6.873-.383-2.365-.127-4.558-.191-6.583-.191-3.472,0-6.004.405-7.596,1.211-1.592.807-2.387,2.187-2.387,4.139,0,1.021.506,1.914,1.519,2.678s2.435,1.613,4.268,2.547l18.953,10.191c2.989,1.613,5.401,3.227,7.234,4.841,1.831,1.613,3.255,3.228,4.268,4.841s1.664,3.228,1.953,4.842c.29,1.613.434,3.227.434,4.839Z M629.301,426.595c0,10.044-2.846,17.895-8.537,23.554-5.692,5.66-14.373,8.489-26.043,8.489-1.736,0-3.812-.064-6.221-.191-2.412-.128-4.97-.363-7.669-.702v22.596c0,.68-.289,1.276-.868,1.787-.578.511-1.254.766-2.025.766h-13.311c-.773,0-1.446-.255-2.025-.766s-.868-1.107-.868-1.787v-88.852c0-.936.239-1.638.724-2.106.481-.467,1.542-.913,3.183-1.341,4.533-1.021,9.354-1.829,14.469-2.426,5.111-.594,9.982-.893,14.612-.893,11.67,0,20.351,2.83,26.043,8.488,5.691,5.662,8.537,13.513,8.537,23.554v9.83ZM610.203,416.793c0-2.623-.217-5.035-.651-7.236-.434-2.201-1.229-4.105-2.387-5.713-1.158-1.608-2.749-2.879-4.775-3.811-2.025-.93-4.582-1.396-7.668-1.396-2.604,0-5.233.086-7.885.256-2.654.17-4.655.381-6.005.635v44.306c2.026.255,4.413.467,7.162.636,2.749.17,4.991.254,6.728.254,3.086,0,5.643-.465,7.668-1.396,2.026-.93,3.617-2.2,4.775-3.808,1.157-1.608,1.953-3.513,2.387-5.715.435-2.2.651-4.612.651-7.237v-9.773Z M659.394,373.488c0,.682-.289,1.276-.868,1.787-.578.51-1.254.766-2.025.766h-14.034c-.772,0-1.472-.256-2.098-.766-.629-.511-.94-1.105-.94-1.787v-11.234c0-.68.312-1.277.94-1.787.626-.511,1.325-.766,2.098-.766h14.034c.771,0,1.447.255,2.025.766.579.51.868,1.107.868,1.787v11.234ZM658.96,454.936c0,.682-.289,1.298-.868,1.851-.579.555-1.255.83-2.025.83h-13.311c-.773,0-1.447-.275-2.026-.83-.578-.553-.868-1.169-.868-1.851v-66.767c0-.681.29-1.276.868-1.788.579-.51,1.253-.766,2.026-.766h13.311c.771,0,1.446.256,2.025.766.579.512.868,1.107.868,1.788v66.767Z M713.504,398.254c-.579.511-1.255.766-2.025.766-3.956,0-7.501.405-10.635,1.213-3.135.811-6.246,1.938-9.332,3.383v51.32c0,.682-.289,1.298-.868,1.851-.578.515-1.254.83-2.025.83h-13.311c-.773,0-1.446-.275-2.025-.83-.579-.553-.868-1.169-.868-1.851v-66.767c0-.681.289-1.276.868-1.788.579-.51,1.252-.766,2.025-.766h12.588c.771,0,1.446.256,2.025.766.578.512.868,1.107.868,1.788v2.681c3.567-2.467,7.184-4.105,10.851-4.915,3.665-.808,6.945-1.212,9.839-1.212.771,0,1.446.255,2.025.766.579.51.868,1.107.868,1.787v9.191c0,.682-.289,1.276-.868,1.787Z M787.522,426.85c0,4.596-.748,8.831-2.242,12.702-1.497,3.874-3.689,7.213-6.583,10.021s-6.488,5.023-10.779,6.639c-4.293,1.616-9.284,2.426-14.975,2.426s-10.684-.81-14.975-2.426c-4.293-1.615-7.885-3.83-10.778-6.639s-5.089-6.147-6.583-10.021c-1.497-3.871-2.243-8.106-2.243-12.702v-10.34c0-4.596.746-8.828,2.243-12.703,1.494-3.871,3.689-7.213,6.583-10.021,2.894-2.809,6.485-5.021,10.778-6.639,4.291-1.616,9.282-2.425,14.975-2.425s10.682.809,14.975,2.425c4.291,1.618,7.886,3.83,10.779,6.639,2.894,2.808,5.086,6.149,6.583,10.021,1.494,3.875,2.242,8.107,2.242,12.703v10.34ZM768.425,416.51c0-5.276-1.303-9.467-3.906-12.574-2.604-3.106-6.464-4.66-11.575-4.66s-8.97,1.554-11.574,4.66c-2.604,3.107-3.906,7.298-3.906,12.574v10.34c0,5.278,1.302,9.469,3.906,12.575,2.604,3.107,6.461,4.659,11.574,4.659s8.971-1.552,11.575-4.659c2.604-3.106,3.906-7.297,3.906-12.575v-10.34Z M864.274,456.786c-.578.555-1.254.83-2.025.83h-13.311c-.773,0-1.446-.275-2.025-.83-.579-.553-.868-1.169-.868-1.851v-41.617c0-2.809-.122-5.127-.361-6.958-.242-1.829-.773-3.275-1.592-4.341-.82-1.062-2.051-1.828-3.689-2.297-1.642-.467-3.859-.703-6.655-.703-2.51,0-5.089.405-7.74,1.213-2.654.811-5.523,1.938-8.609,3.383v51.32c0,.682-.289,1.298-.868,1.851-.578.555-1.254.83-2.025.83h-13.311c-.773,0-1.446-.275-2.025-.83-.579-.553-.868-1.169-.868-1.851v-66.767c0-.681.289-1.276.868-1.788.579-.51,1.252-.766,2.025-.766h12.588c.771,0,1.446.256,2.025.766.578.512.868,1.107.868,1.788v2.681c2.12-1.191,4.073-2.17,5.859-2.936,1.783-.767,3.592-1.383,5.426-1.852,1.831-.467,3.712-.809,5.643-1.021,1.928-.211,4.099-.318,6.511-.318,5.208,0,9.451.724,12.731,2.17,3.278,1.447,5.811,3.446,7.596,6,1.784,2.553,3.014,5.574,3.689,9.063.674,3.491,1.013,7.276,1.013,11.362v41.617c0,.682-.289,1.298-.868,1.851Z"/>
        
        <!-- "TECH" (Precision Gold) -->
        <!-- T -->
        <path class="text-secondary" d="M938.227,391.56h-20.21v63.424c0,.524-.173.985-.519,1.378-.347.393-.795.589-1.347.589h-5.7c-.554,0-1.003-.196-1.348-.589-.347-.393-.519-.854-.519-1.378v-63.424h-20.209c-.554,0-1.036-.129-1.451-.387-.414-.257-.622-.646-.622-1.164v-4.265c0-.516.208-.936.622-1.26.415-.322.897-.484,1.451-.484h49.851c1.312,0,1.969.581,1.969,1.744v4.265c0,1.034-.657,1.551-1.969,1.551Z"/>
        <!-- E -->
        <path class="text-secondary" d="M1002.367,456.656c-.173.262-.433.424-.777.49-.968.131-2.28.212-3.938.246-1.658.031-3.438.08-5.337.146-1.901.064-3.818.099-5.752.099h-5.182c-7.324,0-12.835-1.407-16.53-4.222-3.697-2.814-5.545-7.494-5.545-14.041v-37.801c0-6.545,1.848-11.225,5.545-14.04,3.695-2.813,9.206-4.222,16.53-4.222,1.519,0,3.229.017,5.13.049,1.899.033,3.783.066,5.648.098,1.865.034,3.627.099,5.285.197,1.658.098,3.04.181,4.146.245.345.065.604.229.777.491.172.262.259.557.259.883v4.91c0,.785-.38,1.178-1.14,1.178h-20.002c-2.765,0-4.975.182-6.633.54-1.658.36-2.938.95-3.835,1.767-.898.82-1.503,1.883-1.813,3.191-.312,1.311-.467,2.881-.467,4.713v13.648h31.817c.552,0,1.036.194,1.451.58.414.389.621.842.621,1.358v3.683c0,.518-.207.971-.621,1.357-.415.388-.899.581-1.451.581h-31.817v16.556c0,1.906.155,3.498.467,4.779.311,1.283.915,2.334,1.813,3.154.897.82,2.177,1.411,3.835,1.773,1.658.361,3.868.541,6.633.541h20.002c.76,0,1.14.393,1.14,1.179v5.007c0,.328-.087.623-.259.885Z"/>
        <!-- C -->
        <path class="text-secondary" d="M1068.862,455.723c-.415.295-.899.508-1.451.639-1.106.196-2.212.377-3.316.539-1.106.163-2.316.295-3.628.394-1.313.099-2.798.179-4.456.245-1.658.064-3.594.099-5.804.099-3.179,0-6.392-.459-9.639-1.375-3.248-.915-6.185-2.536-8.81-4.86-2.626-2.322-4.767-5.432-6.425-9.327-1.658-3.894-2.487-8.819-2.487-14.776v-13.648c0-6.021.829-10.979,2.487-14.874,1.658-3.894,3.799-6.987,6.425-9.278,2.625-2.291,5.562-3.895,8.81-4.811,3.247-.916,6.46-1.375,9.639-1.375,3.316,0,6.478.181,9.482.539,3.006.361,5.648.705,7.929,1.031,1.104.133,1.658.557,1.658,1.277v5.007c0,.328-.069.589-.207.785-.14.196-.484.295-1.037.295h-.311c-.969-.064-2.124-.147-3.472-.245-1.348-.099-2.799-.197-4.353-.295-1.555-.098-3.161-.18-4.819-.246-1.658-.064-3.249-.098-4.768-.098-2.557,0-4.923.377-7.1,1.129-2.176.754-4.077,1.998-5.7,3.731-1.624,1.735-2.901,4.025-3.834,6.872-.933,2.848-1.399,6.367-1.399,10.555v13.648c0,4.123.467,7.609,1.399,10.457.933,2.847,2.21,5.139,3.834,6.872,1.623,1.735,3.524,2.995,5.7,3.78,2.177.785,4.543,1.178,7.1,1.178,1.451,0,2.987-.031,4.612-.098,1.622-.064,3.212-.131,4.767-.196,1.555-.064,2.988-.147,4.302-.245,1.312-.099,2.451-.18,3.42-.246h.414c1.104,0,1.658.525,1.658,1.571v4.025c0,.589-.207,1.03-.621,1.325Z"/>
        <!-- H -->
        <path class="text-secondary" d="M1143.295,456.361c-.414.393-.898.589-1.451.589h-5.285c-.554,0-1.036-.194-1.451-.587-.414-.393-.622-.85-.622-1.371v-32.504h-35.444v32.504c0,.521-.207.979-.621,1.371-.415.393-.899.587-1.451.587h-5.286c-.554,0-1.036-.196-1.45-.589-.415-.393-.622-.85-.622-1.375v-69.023c0-.523.207-.981.622-1.375.414-.393.896-.588,1.45-.588h5.286c.552,0,1.036.195,1.451.588.414.394.621.852.621,1.375v28.474h35.444v-28.474c0-.523.208-.981.622-1.375.415-.393.897-.588,1.451-.588h5.285c.553,0,1.037.195,1.451.588.415.394.622.852.622,1.375v69.023c0,.525-.207.982-.622,1.375Z"/>
    </g>
</svg>
